<svg id="LOGO" xmlns="http://www.w3.org/2000/svg" viewBox="0 0 1047.39 423.2"><defs><style>.cls-1{fill:#fff;}</style></defs><title>LOGO BLANCO</title><path class="cls-1" d="M181.86,251.5h28.38L172.59,481.38H144.21L113.07,329,81.94,481.38H53.67L16,251.5H44.28L69.13,406.3l29.7-154.8h28.49l29.81,154.8ZM158.12,521l21.42,46.38H175.9l-6-13H143l-5.85,13H133.5L154.81,521Zm10.49,30.48-12.15-26.72L144.32,551.5Zm434.7-.33,11.6,16.23H611l-11-15.46a29.22,29.22,0,0,1-4.53.33H582.22V567.4H578.8V521h16.67a25.38,25.38,0,0,1,10,1.88,14.62,14.62,0,0,1,6.4,5.41,16.82,16.82,0,0,1,0,16.67,14.62,14.62,0,0,1-6.4,5.41A13.66,13.66,0,0,1,603.31,551.17Zm3.54-5.19a13.07,13.07,0,0,0,0-18.55c-2.54-2.21-6.41-3.32-11.38-3.32H582.22v-1.65l-1.54,1.65h1.54v25.18h-1.54l1.54,1.54v-1.54h13.25C600.44,549.29,604.31,548.18,606.85,546ZM527.57,185c5.63,1.11,11.15,2.1,16.45,2.87,12.7.11,21.86-3.86,27.16-8.94,3.65-3.54,5.52-7.62,5.52-11.26,0-8.95-8.5-11.16-8.5-11.16,8.5,11.16-3.86,23.08-42.73,15.46s-62.83,8.95-47.15,42.07C475.78,198,486.94,177.41,527.57,185Zm535.84,99V448.48c0,27.49-30.81,34.67-53.22,34.67-21.09,0-53.44-7.62-53.44-37v-159c0-25.28,29-35.66,53.44-35.66C1030.73,251.5,1063.41,259.45,1063.41,284.07Zm-28.93,0c0-15.35-16-20.2-25-20.2-9.17,0-23.3,5.74-23.3,20.2V448.26c0,14.57,12.15,22.63,23.3,22.63s25-7.39,25-22.63ZM65.15,548.51a12.85,12.85,0,0,1,1.77,6.63,10.48,10.48,0,0,1-4.31,9.05c-2.76,2.21-7.06,3.21-12.81,3.21H29.16V521H48.48c5,0,8.83,1.11,11.7,3.09s4.2,5,4.2,8.84a10.88,10.88,0,0,1-1.77,6.4,11.67,11.67,0,0,1-5,3.87c-.33.11-.66.22-1.1.33a15.54,15.54,0,0,1,3.42,1A10.61,10.61,0,0,1,65.15,548.51Zm-1.65,6.41c0-3.31-1.22-5.74-3.54-7.29s-5.74-2.21-10.16-2.21H32.47v-3h15.9c4,0,7.07-.77,9.27-2.32a8.83,8.83,0,0,0,0-13.8c-2.2-1.54-5.3-2.32-9.27-2.32H32.47v18.44h-.33v3h.33v19.11H49.8c4.42,0,7.84-.78,10.16-2.32S63.5,558.23,63.5,554.92Zm994.94-26.61a14.67,14.67,0,0,1,2.32,8.39,15.17,15.17,0,0,1-2.32,8.39,13.82,13.82,0,0,1-6.4,5.3,22.77,22.77,0,0,1-9.94,1.88h-13.25V567.4h-3.42V521h16.67a24.48,24.48,0,0,1,9.94,1.88A14,14,0,0,1,1058.44,528.31Zm-1.1,8.39c0-4-1.33-7.07-4-9.27s-6.29-3.32-11.26-3.32h-13.25v-1.65l-1.55,1.65h1.55v25.07h-1.55l1.55,1.54v-1.54h13.25c5,0,8.72-1,11.26-3.2S1057.34,540.68,1057.34,536.7ZM274.61,551.17,286.2,567.4h-3.86l-11-15.46a29.22,29.22,0,0,1-4.53.33H253.52V567.4h-3.31V521h16.56a24.66,24.66,0,0,1,10.05,1.88,14,14,0,0,1,6.4,5.41,16.13,16.13,0,0,1,0,16.67,14,14,0,0,1-6.4,5.41A14.37,14.37,0,0,1,274.61,551.17Zm3.53-5.19c2.65-2.21,3.87-5.3,3.87-9.28s-1.22-7.07-3.87-9.27-6.29-3.32-11.37-3.32H253.52v-1.65l-1.44,1.65h1.44v25.18h-1.44l1.44,1.43v-1.43h13.25C271.85,549.29,275.6,548.18,278.14,546Zm446.3-99.49a21.06,21.06,0,0,1-21,21.09h-3.87c-11,0-18.66-5.74-21.75-13.36a17.84,17.84,0,0,1-1.1-4,14.09,14.09,0,0,1-.44-3.76v-195H646.82V448.7c0,23.41,24.4,33.57,53.22,33.57,17.33,0,33-4.64,42.73-12.81a48.9,48.9,0,0,0,6.07-7.4c2-3,4-6.29,4.53-10.93a21.52,21.52,0,0,0,.11-2.43V251.5h-29ZM712,546.09a30.51,30.51,0,0,0-5.63-2.1c-2.1-.55-4.09-1.11-6.18-1.55a59.7,59.7,0,0,1-5.75-1.76,13,13,0,0,1-4.08-2.87,7.58,7.58,0,0,1-1.55-4.86,8.65,8.65,0,0,1,1.33-4.64,11.12,11.12,0,0,1,4.3-3.31,18,18,0,0,1,7.4-1.33,23.15,23.15,0,0,1,6.52,1,21.27,21.27,0,0,1,6.18,3l1.33-2.76a24.35,24.35,0,0,0-6.41-3,25.91,25.91,0,0,0-7.62-1.22,22.83,22.83,0,0,0-9.38,1.77,12.06,12.06,0,0,0-5.3,4.52,10.35,10.35,0,0,0,4,15.57,28.2,28.2,0,0,0,5.63,2.21c2.1.55,4.2,1.11,6.19,1.55a34.28,34.28,0,0,1,5.63,1.76,11.93,11.93,0,0,1,4.19,2.87,6.65,6.65,0,0,1,1.55,4.75,8.65,8.65,0,0,1-1.33,4.64,9.79,9.79,0,0,1-4.41,3.2,19.07,19.07,0,0,1-7.62,1.22,23.2,23.2,0,0,1-8.72-1.66,19.36,19.36,0,0,1-6.52-4.09l-1.54,2.43a18.6,18.6,0,0,0,7.06,4.64,29.11,29.11,0,0,0,9.83,1.77,22.43,22.43,0,0,0,9.38-1.77,12,12,0,0,0,5.52-4.53,10.76,10.76,0,0,0,1.77-6.07,10.11,10.11,0,0,0-1.54-5.74A12,12,0,0,0,712,546.09ZM581.78,481.38c-6.73-12.47-22.19-17.22-34.56-24.62A96.26,96.26,0,0,1,535.63,448v33.34H507.36V251.5h32.13l46.16,156.13V251.5H614V481.38c0,17.67-32.46,22.64-32.46,22.64A22.47,22.47,0,0,0,581.78,481.38Zm-46.15-95.51A86.24,86.24,0,0,1,551.42,380l-15.79-52.33Zm36.44,62.94L556.39,396.7c-13.7,4.3-27.5,12.69-15.35,29C549.32,436.78,562.79,444.5,572.07,448.81Zm-96.4,96.61H500.3v-3H475.67V524.11h27.61V521h-31V567.4h32v-3h-28.6Zm169.82-366.9c-12.48-38.87-41.4-34.23-46.15-33.13,4.3-.55,27.93-2.43,32.13,21.86,4.64,26.95-9.06,53-53,48.81-35-3.54-89.66-30.59-97.94,2.87,1.33-3.54,6.41-12.37,22.31-10.6,19.65,2.1,46.15,29.7,75.63,32.9l3.42.33a92.26,92.26,0,0,0,25-1.32A70.44,70.44,0,0,0,618,237C641.52,228.2,654.77,207.33,645.49,178.52ZM890,474.87c-1.44.66-3.09,1.32-4.64,1.88a59.39,59.39,0,0,1-10,2.76,63.61,63.61,0,0,1-10.38,1.43c-1.76.11-3.64.22-5.41.22H809V251.61h50.46a85.41,85.41,0,0,1,15.79,1.55A73.66,73.66,0,0,1,890,257.79c1.77.78,3.53,1.77,5.19,2.65.22.11.55.33.77.45,11.93,7.28,19.77,18.32,19.77,32.57V439.2C915.68,455.88,905.08,468,890,474.87Zm-3.2-181h-.11a29.16,29.16,0,0,0-7.4-18.44,27,27,0,0,0-9.83-7.51,6.2,6.2,0,0,0-1.32-.44,23.54,23.54,0,0,0-8.62-1.66H837.39V466.37h22.08a30.37,30.37,0,0,0,8.62-1.22c.44-.11.88-.33,1.32-.44a26.54,26.54,0,0,0,9.83-7.4,29.2,29.2,0,0,0,7.4-18.55h.11Zm62.82,241a24.09,24.09,0,0,1,0,18.66,21.89,21.89,0,0,1-5.08,7.51,22.52,22.52,0,0,1-7.62,5,26.65,26.65,0,0,1-19.1,0,24.38,24.38,0,0,1-7.73-5,23.31,23.31,0,0,1-5.08-7.51,23.58,23.58,0,0,1-1.76-9.27,23.83,23.83,0,0,1,1.76-9.39,23.26,23.26,0,0,1,5.08-7.5,24.38,24.38,0,0,1,7.73-5,26.65,26.65,0,0,1,19.1,0,22.52,22.52,0,0,1,7.62,5A21.85,21.85,0,0,1,949.57,534.93ZM948,544.32a21.62,21.62,0,0,0-1.55-8.17,21.85,21.85,0,0,0-4.42-6.52,20,20,0,0,0-6.51-4.19,22.6,22.6,0,0,0-16.45,0,20.62,20.62,0,0,0-6.63,4.19,19.79,19.79,0,0,0-4.3,6.52,22,22,0,0,0,0,16.23,18.15,18.15,0,0,0,4.3,6.4,21,21,0,0,0,6.63,4.42,24.21,24.21,0,0,0,16.45,0,20.39,20.39,0,0,0,6.51-4.42,19.91,19.91,0,0,0,4.42-6.4A21.9,21.9,0,0,0,948,544.32ZM348.48,283V342c0,14.24-8.29,22.19-17.12,26.61,8.83,4.42,17.12,11.59,17.12,28.93v83.58h-29V400.78c0-12.7-8.62-17.89-19.77-15.9-5.63,1.55-16.78,3.31-28.26,5.85v90.43H243V251.5h59.29C322.86,251.5,348.48,257.79,348.48,283Zm-29,1.1c0-11.26-9.28-19.32-20.87-19.32H271.41V370.31c6.51-1.55,13.36-2.43,19.87-3.87l9.61-2.65A27.3,27.3,0,0,0,312.26,356c5.08-6.4,6.74-15,7.18-21.53Zm90.21,115.61c10.37-1.77,20.2-2.32,25.94-3.87,19-5.19,34-15,38.21-28.82s-12.92-33.12-12.92-33.12,3.42,17.11-8.06,29.81c-11,12.15-27.72,10.71-43.17,15V266.19h61.17V251.5H381.27V481.38h89.55V467H409.65ZM825.8,542.44h-31V521h-3.31V567.4h3.31v-22h31v22h3.42V521H825.8Zm-429.62,6.07a12,12,0,0,1,1.76,6.63c0,4-1.43,7-4.3,9.05s-7.07,3.21-12.81,3.21H360.18V521H379.5c5,0,8.95,1.11,11.71,3.09s4.3,5,4.3,8.84a11,11,0,0,1-1.87,6.4,10.82,10.82,0,0,1-4.86,3.87,5,5,0,0,1-1.22.33,15.63,15.63,0,0,1,3.43,1A10.7,10.7,0,0,1,396.18,548.51Zm-1.66,6.41c0-3.31-1.11-5.74-3.53-7.29s-5.75-2.21-10.16-2.21H363.49v-3h15.9q6,0,9.28-2.32a8.85,8.85,0,0,0,0-13.8c-2.21-1.54-5.3-2.32-9.28-2.32h-15.9v18.44h-.33v3h.33v19.11h17.34c4.41,0,7.84-.78,10.16-2.32S394.52,558.23,394.52,554.92Z" transform="translate(-16.02 -144.64)"/></svg>